<mxfile host="Electron" agent="Mozilla/5.0 (Windows NT 10.0; Win64; x64) AppleWebKit/537.36 (KHTML, like Gecko) draw.io/27.0.9 Chrome/134.0.6998.205 Electron/35.4.0 Safari/537.36" version="27.0.9">
  <diagram name="Page-1" id="gYJfJsd3g6Rwl_4kRQOQ">
    <mxGraphModel dx="692" dy="595" grid="1" gridSize="10" guides="1" tooltips="1" connect="1" arrows="1" fold="1" page="1" pageScale="1" pageWidth="850" pageHeight="1100" math="0" shadow="0">
      <root>
        <mxCell id="0" />
        <mxCell id="1" parent="0" />
        <mxCell id="91EqPkSaPduxnP0J0R59-3" value="" style="points=[[0,0],[0.25,0],[0.5,0],[0.75,0],[1,0],[1,0.25],[1,0.5],[1,0.75],[1,1],[0.75,1],[0.5,1],[0.25,1],[0,1],[0,0.75],[0,0.5],[0,0.25]];outlineConnect=0;gradientColor=none;html=1;whiteSpace=wrap;fontSize=12;fontStyle=0;container=1;pointerEvents=0;collapsible=0;recursiveResize=0;shape=mxgraph.aws4.group;grIcon=mxgraph.aws4.group_aws_cloud_alt;strokeColor=#232F3E;fillColor=none;verticalAlign=top;align=left;spacingLeft=30;fontColor=#232F3E;dashed=0;" vertex="1" parent="1">
          <mxGeometry x="100" y="80" width="580" height="370" as="geometry" />
        </mxCell>
        <mxCell id="91EqPkSaPduxnP0J0R59-10" value="Subscriber email" style="outlineConnect=0;dashed=0;verticalLabelPosition=bottom;verticalAlign=top;align=center;html=1;shape=mxgraph.aws3.email;fillColor=#D9A741;gradientColor=none;" vertex="1" parent="1">
          <mxGeometry x="509.5" y="489" width="81" height="61.5" as="geometry" />
        </mxCell>
        <mxCell id="91EqPkSaPduxnP0J0R59-20" value="" style="edgeStyle=orthogonalEdgeStyle;rounded=0;orthogonalLoop=1;jettySize=auto;html=1;" edge="1" parent="1" source="91EqPkSaPduxnP0J0R59-8" target="91EqPkSaPduxnP0J0R59-10">
          <mxGeometry relative="1" as="geometry" />
        </mxCell>
        <mxCell id="91EqPkSaPduxnP0J0R59-28" value="Region" style="points=[[0,0],[0.25,0],[0.5,0],[0.75,0],[1,0],[1,0.25],[1,0.5],[1,0.75],[1,1],[0.75,1],[0.5,1],[0.25,1],[0,1],[0,0.75],[0,0.5],[0,0.25]];outlineConnect=0;gradientColor=none;html=1;whiteSpace=wrap;fontSize=12;fontStyle=0;container=1;pointerEvents=0;collapsible=0;recursiveResize=0;shape=mxgraph.aws4.group;grIcon=mxgraph.aws4.group_region;strokeColor=#00A4A6;fillColor=none;verticalAlign=top;align=left;spacingLeft=30;fontColor=#147EBA;dashed=1;" vertex="1" parent="1">
          <mxGeometry x="110" y="110" width="550" height="320" as="geometry" />
        </mxCell>
        <mxCell id="91EqPkSaPduxnP0J0R59-29" value="VPC" style="points=[[0,0],[0.25,0],[0.5,0],[0.75,0],[1,0],[1,0.25],[1,0.5],[1,0.75],[1,1],[0.75,1],[0.5,1],[0.25,1],[0,1],[0,0.75],[0,0.5],[0,0.25]];outlineConnect=0;gradientColor=none;html=1;whiteSpace=wrap;fontSize=12;fontStyle=0;container=1;pointerEvents=0;collapsible=0;recursiveResize=0;shape=mxgraph.aws4.group;grIcon=mxgraph.aws4.group_vpc2;strokeColor=#8C4FFF;fillColor=none;verticalAlign=top;align=left;spacingLeft=30;fontColor=#AAB7B8;dashed=0;" vertex="1" parent="1">
          <mxGeometry x="130" y="150" width="520" height="274" as="geometry" />
        </mxCell>
        <mxCell id="91EqPkSaPduxnP0J0R59-31" value="" style="edgeStyle=orthogonalEdgeStyle;rounded=0;orthogonalLoop=1;jettySize=auto;html=1;" edge="1" parent="91EqPkSaPduxnP0J0R59-29" source="91EqPkSaPduxnP0J0R59-5" target="91EqPkSaPduxnP0J0R59-6">
          <mxGeometry relative="1" as="geometry" />
        </mxCell>
        <mxCell id="91EqPkSaPduxnP0J0R59-5" value="S3 Bucket" style="sketch=0;points=[[0,0,0],[0.25,0,0],[0.5,0,0],[0.75,0,0],[1,0,0],[0,1,0],[0.25,1,0],[0.5,1,0],[0.75,1,0],[1,1,0],[0,0.25,0],[0,0.5,0],[0,0.75,0],[1,0.25,0],[1,0.5,0],[1,0.75,0]];outlineConnect=0;fontColor=#232F3E;fillColor=#7AA116;strokeColor=#ffffff;dashed=0;verticalLabelPosition=top;verticalAlign=bottom;align=center;html=1;fontSize=12;fontStyle=0;aspect=fixed;shape=mxgraph.aws4.resourceIcon;resIcon=mxgraph.aws4.s3;labelPosition=center;" vertex="1" parent="91EqPkSaPduxnP0J0R59-29">
          <mxGeometry x="50" y="50" width="78" height="78" as="geometry" />
        </mxCell>
        <mxCell id="91EqPkSaPduxnP0J0R59-22" value="" style="edgeStyle=orthogonalEdgeStyle;rounded=0;orthogonalLoop=1;jettySize=auto;html=1;" edge="1" parent="91EqPkSaPduxnP0J0R59-29" source="91EqPkSaPduxnP0J0R59-5">
          <mxGeometry relative="1" as="geometry">
            <mxPoint x="89" y="190" as="targetPoint" />
          </mxGeometry>
        </mxCell>
        <mxCell id="91EqPkSaPduxnP0J0R59-6" value="Lambda" style="sketch=0;points=[[0,0,0],[0.25,0,0],[0.5,0,0],[0.75,0,0],[1,0,0],[0,1,0],[0.25,1,0],[0.5,1,0],[0.75,1,0],[1,1,0],[0,0.25,0],[0,0.5,0],[0,0.75,0],[1,0.25,0],[1,0.5,0],[1,0.75,0]];outlineConnect=0;fontColor=#232F3E;fillColor=#ED7100;strokeColor=#ffffff;dashed=0;verticalLabelPosition=top;verticalAlign=bottom;align=center;html=1;fontSize=12;fontStyle=0;aspect=fixed;shape=mxgraph.aws4.resourceIcon;resIcon=mxgraph.aws4.lambda;labelPosition=center;" vertex="1" parent="91EqPkSaPduxnP0J0R59-29">
          <mxGeometry x="228" y="50" width="78" height="78" as="geometry" />
        </mxCell>
        <mxCell id="91EqPkSaPduxnP0J0R59-7" value="Lambda Function" style="sketch=0;outlineConnect=0;fontColor=#232F3E;gradientColor=none;fillColor=#ED7100;strokeColor=none;dashed=0;verticalLabelPosition=bottom;verticalAlign=top;align=center;html=1;fontSize=12;fontStyle=0;aspect=fixed;pointerEvents=1;shape=mxgraph.aws4.lambda_function;labelPosition=center;" vertex="1" parent="91EqPkSaPduxnP0J0R59-29">
          <mxGeometry x="243" y="196" width="48" height="48" as="geometry" />
        </mxCell>
        <mxCell id="91EqPkSaPduxnP0J0R59-23" value="" style="edgeStyle=orthogonalEdgeStyle;rounded=0;orthogonalLoop=1;jettySize=auto;html=1;" edge="1" parent="91EqPkSaPduxnP0J0R59-29" source="91EqPkSaPduxnP0J0R59-6" target="91EqPkSaPduxnP0J0R59-7">
          <mxGeometry relative="1" as="geometry" />
        </mxCell>
        <mxCell id="91EqPkSaPduxnP0J0R59-8" value="SNS" style="outlineConnect=0;dashed=0;verticalLabelPosition=top;verticalAlign=bottom;align=center;html=1;shape=mxgraph.aws3.sns;fillColor=#D9A741;gradientColor=none;labelPosition=center;" vertex="1" parent="91EqPkSaPduxnP0J0R59-29">
          <mxGeometry x="370" y="181" width="100" height="78" as="geometry" />
        </mxCell>
        <mxCell id="91EqPkSaPduxnP0J0R59-24" value="" style="edgeStyle=orthogonalEdgeStyle;rounded=0;orthogonalLoop=1;jettySize=auto;html=1;" edge="1" parent="91EqPkSaPduxnP0J0R59-29" source="91EqPkSaPduxnP0J0R59-7" target="91EqPkSaPduxnP0J0R59-8">
          <mxGeometry relative="1" as="geometry" />
        </mxCell>
        <mxCell id="91EqPkSaPduxnP0J0R59-36" value="" style="edgeStyle=orthogonalEdgeStyle;rounded=0;orthogonalLoop=1;jettySize=auto;html=1;" edge="1" parent="91EqPkSaPduxnP0J0R59-29" source="91EqPkSaPduxnP0J0R59-35" target="91EqPkSaPduxnP0J0R59-7">
          <mxGeometry relative="1" as="geometry" />
        </mxCell>
        <mxCell id="91EqPkSaPduxnP0J0R59-35" value="Document.txt" style="strokeWidth=2;html=1;shape=mxgraph.flowchart.document2;whiteSpace=wrap;size=0.25;" vertex="1" parent="91EqPkSaPduxnP0J0R59-29">
          <mxGeometry x="50" y="190" width="100" height="60" as="geometry" />
        </mxCell>
        <mxCell id="91EqPkSaPduxnP0J0R59-38" value="Trigger" style="text;html=1;align=center;verticalAlign=middle;whiteSpace=wrap;rounded=0;" vertex="1" parent="91EqPkSaPduxnP0J0R59-29">
          <mxGeometry x="350" y="244" width="60" height="30" as="geometry" />
        </mxCell>
      </root>
    </mxGraphModel>
  </diagram>
</mxfile>
